<?xml version="1.0" standalone="no"?>
<!DOCTYPE svg PUBLIC "-//W3C//DTD SVG 20010904//EN"
 "http://www.w3.org/TR/2001/REC-SVG-20010904/DTD/svg10.dtd">
<svg version="1.0" xmlns="http://www.w3.org/2000/svg"
 width="256.000000pt" height="256.000000pt" viewBox="0 0 256.000000 256.000000"
 preserveAspectRatio="xMidYMid meet">
<metadata>
Created by potrace 1.16, written by Peter Selinger 2001-2019
</metadata>
<g transform="translate(0.000000,256.000000) scale(0.100000,-0.100000)"
fill="#000000" stroke="none">
<path d="M2109 2048 c-10 -6 -7 -7 11 -2 14 3 23 4 20 1 -3 -4 -402 -166 -885
-362 -484 -196 -886 -359 -894 -363 -10 -4 -12 -1 -6 9 5 8 0 6 -12 -4 -26
-22 -25 -70 1 -94 11 -10 15 -12 11 -4 -6 11 -4 13 10 7 19 -7 449 -127 513
-143 30 -7 49 -34 211 -293 166 -266 180 -285 209 -288 22 -2 33 2 40 15 5 10
26 104 47 210 l37 192 37 -14 c150 -59 460 -165 481 -165 20 0 22 -2 10 -11
-13 -9 -13 -10 0 -6 8 2 15 10 15 18 0 8 6 14 14 14 8 0 16 7 18 15 4 13 3 13
-7 0 -9 -12 -10 -9 -6 15 4 17 60 297 125 623 110 551 117 594 102 611 -19 22
-81 34 -102 19z m-106 -659 c-59 -294 -109 -526 -111 -516 -2 9 -11 17 -20 17
-15 0 -15 -2 -2 -11 22 -15 2 -9 -216 69 l-191 68 114 154 c107 145 148 197
128 160 -8 -13 -7 -13 8 -1 18 15 23 26 7 16 -17 -10 -11 12 7 26 15 12 16 12
8 -1 -8 -13 -7 -13 8 -1 18 15 23 26 7 16 -5 -3 -10 -4 -10 0 0 8 141 195 147
195 3 0 -11 -21 -31 -47 -70 -94 -97 -133 -93 -133 3 0 33 38 68 84 53 72 62
91 62 127 0 43 -20 69 -52 69 -9 -1 -1 -7 17 -15 17 -8 32 -16 32 -19 0 -3
-11 -1 -23 5 -20 9 -35 5 -86 -20 -34 -18 -67 -29 -73 -25 -7 4 -8 3 -4 -4 8
-14 -110 -76 -126 -66 -7 4 -8 3 -4 -4 8 -14 -110 -76 -126 -66 -7 4 -8 3 -4
-4 8 -14 -110 -76 -126 -66 -7 4 -8 3 -4 -4 8 -14 -110 -76 -126 -66 -6 4 -8
3 -4 -4 4 -6 -44 -37 -120 -77 l-127 -67 -193 53 c-107 30 -194 56 -194 59 0
3 309 130 688 283 378 153 728 295 777 316 50 20 91 37 92 36 2 -1 -45 -242
-104 -536z m-345 53 c-86 -119 -261 -352 -265 -352 -2 0 -1 5 2 10 10 16 -1
11 -16 -7 -10 -11 -10 -14 -1 -9 18 11 15 -9 -5 -25 -11 -10 -14 -10 -9 -1 11
18 1 15 -15 -5 -10 -11 -10 -14 -1 -9 16 9 15 1 -2 -27 -7 -12 -26 -90 -41
-174 -16 -84 -32 -150 -37 -147 -5 4 -7 12 -4 19 2 7 -2 21 -10 32 -14 17 -14
16 -4 -4 6 -13 9 -23 6 -23 -4 0 -36 50 -181 286 l-63 100 144 78 c80 43 149
74 155 70 7 -4 9 -3 6 4 -9 13 239 146 255 136 7 -4 8 -3 4 4 -4 7 12 21 41
36 58 30 57 30 41 8z"/>
</g>
</svg>
